<?xml version="1.0" encoding="utf-8"?>
<!-- Generator: Adobe Illustrator 25.3.1, SVG Export Plug-In . SVG Version: 6.00 Build 0)  -->
<svg version="1.1" id="Layer_1" xmlns="http://www.w3.org/2000/svg" xmlns:xlink="http://www.w3.org/1999/xlink" x="0px" y="0px"
	 viewBox="0 0 24 24" style="enable-background:new 0 0 24 24;" xml:space="preserve">
<style type="text/css">
	.st0{fill:#FFFFFF;}
</style>
<path class="st0" d="M12,10.1c1,0,1.9,0.8,1.9,1.9c0,1-0.8,1.9-1.9,1.9S10.1,13,10.1,12C10.1,10.9,11,10.1,12,10.1 M7.4,20
	c0.6,0.4,2-0.2,3.6-1.7c-0.5-0.6-1-1.2-1.5-1.9c-0.8-0.1-1.6-0.2-2.4-0.4C6.6,18.2,6.7,19.6,7.4,20 M8.1,14.3l-0.3-0.5
	c-0.1,0.3-0.2,0.6-0.3,0.9c0.3,0.1,0.6,0.1,0.9,0.2C8.3,14.6,8.2,14.4,8.1,14.3 M14.6,13.5l0.8-1.5l-0.8-1.5C14.3,10,14,9.5,13.7,9
	c-0.5,0-1.1,0-1.7,0s-1.2,0-1.7,0C10,9.5,9.7,10,9.4,10.5L8.6,12l0.8,1.5c0.3,0.5,0.6,1,0.9,1.5c0.5,0,1.1,0,1.7,0s1.2,0,1.7,0
	C14,14.5,14.3,14,14.6,13.5 M12,6.8c-0.2,0.2-0.4,0.4-0.6,0.7c0.2,0,0.4,0,0.6,0s0.4,0,0.6,0C12.4,7.2,12.2,7,12,6.8 M12,17.2
	c0.2-0.2,0.4-0.4,0.6-0.7c-0.2,0-0.4,0-0.6,0s-0.4,0-0.6,0C11.6,16.8,11.8,17,12,17.2 M16.6,4c-0.6-0.4-2,0.2-3.6,1.7
	c0.5,0.6,1,1.2,1.5,1.9c0.8,0.1,1.6,0.2,2.4,0.4C17.5,5.8,17.3,4.3,16.6,4 M15.9,9.7l0.3,0.5c0.1-0.3,0.2-0.6,0.3-0.9
	c-0.3-0.1-0.6-0.1-0.9-0.2C15.7,9.4,15.8,9.6,15.9,9.7 M17.4,2.7c1.5,0.8,1.6,3,1,5.6c2.5,0.8,4.4,2,4.4,3.7s-1.8,2.9-4.4,3.7
	c0.6,2.6,0.5,4.8-1,5.6c-1.5,0.8-3.5-0.1-5.4-1.9c-1.9,1.8-3.9,2.8-5.4,1.9c-1.5-0.8-1.6-3-1-5.6c-2.5-0.8-4.4-2-4.4-3.7
	s1.8-2.9,4.4-3.7C5,5.7,5.2,3.5,6.6,2.7c1.5-0.8,3.5,0.1,5.4,1.9C13.9,2.8,15.9,1.9,17.4,2.7 M17.1,12c0.3,0.8,0.6,1.5,0.9,2.3
	c2.1-0.6,3.3-1.5,3.3-2.3s-1.2-1.6-3.3-2.3C17.7,10.5,17.4,11.2,17.1,12 M6.9,12C6.6,11.2,6.3,10.5,6,9.7c-2.1,0.6-3.3,1.5-3.3,2.3
	s1.2,1.6,3.3,2.3C6.3,13.5,6.6,12.8,6.9,12 M15.9,14.3c-0.1,0.2-0.2,0.3-0.3,0.5c0.3-0.1,0.6-0.1,0.9-0.2c-0.1-0.3-0.2-0.6-0.3-0.9
	L15.9,14.3 M13,18.3c1.6,1.5,3,2.1,3.6,1.7c0.6-0.4,0.8-1.8,0.3-4c-0.8,0.2-1.6,0.3-2.4,0.4C14.1,17.1,13.6,17.7,13,18.3 M8.1,9.7
	c0.1-0.2,0.2-0.3,0.3-0.5C8.1,9.3,7.8,9.3,7.5,9.4c0.1,0.3,0.2,0.6,0.3,0.9L8.1,9.7 M11,5.7C9.4,4.2,8,3.6,7.4,4
	C6.7,4.3,6.6,5.8,7.1,8c0.8-0.2,1.6-0.3,2.4-0.4C9.9,6.9,10.4,6.3,11,5.7z"/>
</svg>
